<svg width="327" height="243" viewBox="0 0 327 243" fill="none" xmlns="http://www.w3.org/2000/svg">
<path d="M326.819 213.545H0.697266V213.708H326.819V213.545Z" fill="#EBEBEB"/>
<path d="M294.142 219.754H234.853V219.917H294.142V219.754Z" fill="#EBEBEB"/>
<path d="M216.733 217.987H200.499V218.15H216.733V217.987Z" fill="#EBEBEB"/>
<path d="M253.84 225.813H228.669V225.977H253.84V225.813Z" fill="#EBEBEB"/>
<path d="M49.6806 224.718H34.9138V224.881H49.6806V224.718Z" fill="#EBEBEB"/>
<path d="M73.0247 224.718H55.4858V224.881H73.0247V224.718Z" fill="#EBEBEB"/>
<path d="M147.55 221.965H116.999V222.128H147.55V221.965Z" fill="#EBEBEB"/>
<path d="M155.279 184.455H29.3372C28.3506 184.453 27.4049 184.06 26.7079 183.361C26.0109 182.663 25.6194 181.717 25.6194 180.73V3.6917C25.628 2.71074 26.0233 1.77279 26.7194 1.08156C27.4155 0.390341 28.3562 0.00168043 29.3372 0H155.279C156.267 0 157.214 0.392382 157.912 1.09083C158.611 1.78927 159.003 2.73656 159.003 3.72431V180.73C159.003 181.718 158.611 182.665 157.912 183.364C157.214 184.062 156.267 184.455 155.279 184.455ZM29.3372 0.130449C28.3938 0.132177 27.4897 0.508141 26.8232 1.17582C26.1568 1.84349 25.7824 2.74833 25.7824 3.6917V180.73C25.7824 181.674 26.1568 182.578 26.8232 183.246C27.4897 183.914 28.3938 184.29 29.3372 184.292H155.279C156.223 184.29 157.128 183.914 157.795 183.247C158.463 182.579 158.838 181.674 158.84 180.73V3.6917C158.838 2.74773 158.463 1.84291 157.795 1.17542C157.128 0.507929 156.223 0.132173 155.279 0.130449H29.3372Z" fill="#EBEBEB"/>
<path d="M296.366 184.455H170.418C169.431 184.453 168.484 184.06 167.786 183.362C167.088 182.664 166.695 181.717 166.694 180.73V3.6917C166.704 2.71015 167.101 1.7722 167.798 1.08115C168.495 0.390113 169.436 0.00166211 170.418 0H296.366C297.346 0.0033946 298.285 0.392813 298.98 1.08385C299.675 1.77489 300.069 2.71187 300.077 3.6917V180.73C300.077 181.716 299.687 182.661 298.991 183.359C298.296 184.057 297.352 184.451 296.366 184.455ZM170.418 0.130449C169.474 0.132173 168.569 0.507929 167.902 1.17542C167.234 1.84291 166.858 2.74773 166.857 3.6917V180.73C166.858 181.674 167.234 182.579 167.902 183.247C168.569 183.914 169.474 184.29 170.418 184.292H296.366C297.31 184.29 298.215 183.914 298.883 183.247C299.55 182.579 299.926 181.674 299.927 180.73V3.6917C299.926 2.74773 299.55 1.84291 298.883 1.17542C298.215 0.507929 297.31 0.132173 296.366 0.130449H170.418Z" fill="#EBEBEB"/>
<path d="M34.9074 213.538H112.89L112.89 41.0784H34.9074L34.9074 213.538Z" fill="#F0F0F0"/>
<path d="M34.9142 213.538H109.198L109.198 41.0784H34.9142L34.9142 213.538Z" fill="#F5F5F5"/>
<path d="M105.284 209.631L105.284 44.9983L38.8273 44.9983L38.8273 209.631H105.284Z" fill="#F0F0F0"/>
<path d="M60.2993 122.622H46.7522C46.2909 122.62 45.8489 122.436 45.5227 122.11C45.1965 121.784 45.0125 121.342 45.0107 120.88C45.0125 120.419 45.1965 119.977 45.5227 119.651C45.8489 119.325 46.2909 119.141 46.7522 119.139H60.2993C60.7607 119.141 61.2026 119.325 61.5289 119.651C61.8551 119.977 62.0391 120.419 62.0408 120.88C62.0391 121.342 61.8551 121.784 61.5289 122.11C61.2026 122.436 60.7607 122.62 60.2993 122.622Z" fill="white"/>
<path d="M39.845 209.631L39.845 44.9983H38.8275L38.8275 209.631H39.845Z" fill="#F0F0F0"/>
<path d="M149.429 210.27H161.039V159.917H149.429V210.27Z" fill="#F0F0F0"/>
<path d="M101.554 213.466H158.808V210.277H101.554V213.466Z" fill="#F0F0F0"/>
<path d="M149.428 159.924H99.323V210.277H149.428V159.924Z" fill="#F5F5F5"/>
<path d="M144.856 166.12H103.882V182.635H144.856V166.12Z" fill="#F0F0F0"/>
<path d="M144.856 187.559H103.882V204.074H144.856V187.559Z" fill="#F0F0F0"/>
<path d="M119.771 167.509H128.974C129.273 167.507 129.559 167.388 129.77 167.177C129.981 166.966 130.101 166.68 130.102 166.381C130.102 166.081 129.984 165.793 129.772 165.581C129.561 165.368 129.274 165.248 128.974 165.246H119.771C119.471 165.248 119.184 165.368 118.972 165.581C118.761 165.793 118.642 166.081 118.642 166.381C118.644 166.68 118.763 166.966 118.975 167.177C119.186 167.388 119.472 167.507 119.771 167.509Z" fill="#F5F5F5"/>
<path d="M119.771 188.955H128.974C129.269 188.953 129.552 188.837 129.763 188.63C129.974 188.423 130.095 188.142 130.102 187.846C130.101 187.547 129.981 187.261 129.77 187.05C129.559 186.839 129.273 186.72 128.974 186.718H119.771C119.472 186.72 119.186 186.839 118.975 187.05C118.763 187.261 118.644 187.547 118.642 187.846C118.649 188.142 118.771 188.423 118.981 188.63C119.192 188.837 119.475 188.953 119.771 188.955Z" fill="#F5F5F5"/>
<path d="M128.192 158.932C127.964 158.931 127.746 158.839 127.585 158.678C127.424 158.517 127.332 158.299 127.331 158.071V131.91C127.331 131.682 127.421 131.463 127.583 131.301C127.744 131.14 127.963 131.049 128.192 131.049C128.419 131.051 128.637 131.142 128.798 131.303C128.96 131.464 129.051 131.682 129.052 131.91V158.071C129.051 158.299 128.96 158.517 128.798 158.678C128.637 158.839 128.419 158.931 128.192 158.932Z" fill="#F5F5F5"/>
<path d="M136.247 157.915H120.136V159.943H136.247V157.915Z" fill="#F0F0F0"/>
<path d="M132.653 143.278C132.54 143.278 132.431 143.234 132.351 143.155C132.27 143.075 132.224 142.967 132.222 142.854V129.797C132.224 129.683 132.27 129.574 132.35 129.494C132.43 129.414 132.539 129.368 132.653 129.366C132.766 129.368 132.875 129.414 132.955 129.494C133.036 129.574 133.081 129.683 133.083 129.797V142.841C133.084 142.898 133.073 142.955 133.052 143.008C133.031 143.061 132.999 143.109 132.959 143.15C132.919 143.191 132.872 143.223 132.819 143.245C132.766 143.267 132.71 143.278 132.653 143.278Z" fill="#F0F0F0"/>
<path d="M115.662 134.297C115.662 134.297 115.981 121.97 128.191 121.97C140.401 121.97 140.715 134.284 140.715 134.284L115.662 134.297Z" fill="#F0F0F0"/>
<path d="M221.358 151.712C221.704 151.712 222.056 151.712 222.408 151.745C226.016 152.005 229.408 153.561 231.96 156.124C234.511 158.688 236.051 162.087 236.294 165.696C236.397 167.336 236.234 168.981 235.812 170.568C234.177 176.936 233.387 183.491 233.464 190.064V209.201C233.465 209.532 233.4 209.861 233.273 210.167C233.147 210.473 232.961 210.751 232.726 210.985C232.491 211.219 232.213 211.405 231.906 211.531C231.599 211.656 231.271 211.72 230.94 211.719H170.196V151.712H221.358Z" fill="#F0F0F0"/>
<path d="M155.227 166.681C155.233 164.553 155.694 162.451 156.577 160.516C157.46 158.58 158.746 156.855 160.349 155.455C161.951 154.056 163.834 153.014 165.872 152.4C167.909 151.786 170.053 151.614 172.163 151.894C174.272 152.175 176.297 152.902 178.103 154.027C179.909 155.153 181.454 156.65 182.635 158.42C183.816 160.19 184.606 162.191 184.952 164.291C185.299 166.39 185.193 168.539 184.643 170.594C183.013 176.963 182.226 183.517 182.302 190.09V209.227C182.302 209.557 182.237 209.884 182.11 210.189C181.983 210.494 181.798 210.772 181.564 211.005C181.33 211.238 181.052 211.423 180.747 211.549C180.442 211.675 180.114 211.739 179.784 211.738H160.602C160.272 211.738 159.945 211.673 159.641 211.547C159.336 211.421 159.059 211.236 158.826 211.002C158.593 210.769 158.408 210.492 158.282 210.188C158.155 209.883 158.09 209.557 158.09 209.227V188.942C158.146 182.777 157.365 176.634 155.768 170.679C155.409 169.377 155.227 168.032 155.227 166.681Z" fill="#F5F5F5"/>
<path d="M190.82 211.719H245.354V175.284H190.82V211.719Z" fill="#F0F0F0"/>
<path d="M290.424 183.528H217.432V127.651C217.432 124.648 218.625 121.768 220.748 119.644C222.872 117.521 225.752 116.328 228.755 116.328L279.101 116.328C282.104 116.328 284.984 117.521 287.108 119.644C289.231 121.768 290.424 124.648 290.424 127.651V183.528Z" fill="#E0E0E0"/>
<path d="M276.159 183.528H203.167V127.103C203.167 124.243 204.303 121.501 206.325 119.479C208.347 117.457 211.089 116.321 213.948 116.321L265.352 116.321C268.211 116.321 270.954 117.457 272.975 119.479C274.997 121.501 276.133 124.243 276.133 127.103V183.528H276.159Z" fill="#F5F5F5"/>
<path d="M241.793 186.796H191.524C190.659 186.796 189.83 186.453 189.218 185.841C188.607 185.229 188.263 184.4 188.263 183.535V175.271C188.263 174.406 188.607 173.577 189.218 172.965C189.83 172.353 190.659 172.01 191.524 172.01H241.793C242.054 172.01 242.304 172.114 242.489 172.298C242.674 172.483 242.778 172.733 242.778 172.995V185.818C242.776 186.078 242.671 186.327 242.487 186.51C242.302 186.693 242.053 186.796 241.793 186.796Z" fill="#E0E0E0"/>
<path d="M295.805 151.712C296.151 151.712 296.496 151.712 296.855 151.745C300.462 152.007 303.852 153.563 306.402 156.126C308.953 158.69 310.491 162.088 310.735 165.696C310.844 167.336 310.681 168.982 310.252 170.568C308.617 176.938 307.827 183.495 307.904 190.071V209.207C307.904 209.538 307.839 209.865 307.712 210.17C307.586 210.475 307.4 210.752 307.166 210.985C306.932 211.219 306.655 211.403 306.349 211.529C306.044 211.655 305.717 211.719 305.386 211.719H244.636V151.712H295.805Z" fill="#F0F0F0"/>
<path d="M229.674 166.681C229.648 162.78 231.146 159.023 233.85 156.211C236.553 153.398 240.248 151.753 244.147 151.626C248.046 151.498 251.841 152.898 254.722 155.528C257.604 158.157 259.344 161.808 259.573 165.703C259.676 167.342 259.513 168.987 259.09 170.575C257.455 176.942 256.666 183.497 256.742 190.07V209.207C256.742 209.873 256.478 210.512 256.007 210.983C255.536 211.454 254.897 211.718 254.231 211.718H235.042C234.712 211.718 234.386 211.653 234.081 211.527C233.777 211.401 233.5 211.216 233.266 210.983C233.033 210.75 232.848 210.473 232.722 210.168C232.596 209.864 232.531 209.537 232.531 209.207V188.942C232.585 182.778 231.807 176.635 230.216 170.679C229.856 169.377 229.674 168.032 229.674 166.681Z" fill="#F5F5F5"/>
<path d="M171.259 213.545H294.735C294.975 213.545 295.212 213.498 295.433 213.406C295.654 213.314 295.855 213.179 296.024 213.009C296.193 212.84 296.327 212.638 296.418 212.417C296.509 212.195 296.556 211.958 296.555 211.719H169.439C169.438 211.958 169.485 212.195 169.576 212.417C169.667 212.638 169.801 212.84 169.97 213.009C170.139 213.179 170.34 213.314 170.561 213.406C170.782 213.498 171.019 213.545 171.259 213.545Z" fill="#E0E0E0"/>
<path d="M244.389 73.6188H284.104V30.3033L244.389 30.3033V73.6188Z" fill="#E0E0E0"/>
<path d="M242.021 73.6188H282.767V30.3033L242.021 30.3033V73.6188Z" fill="#F5F5F5"/>
<path d="M279.349 70.2075V33.7145H245.425V70.2075H279.349Z" fill="white"/>
<path d="M262.39 42.735L271.665 58.8063H253.115L262.39 42.735Z" fill="#F5F5F5"/>
<path d="M188.674 98.9062H228.389V55.5907L188.674 55.5907V98.9062Z" fill="#E0E0E0"/>
<path d="M186.306 98.9062H227.052V55.5907L186.306 55.5907V98.9062Z" fill="#F5F5F5"/>
<path d="M223.634 95.4951V59.002H189.711V95.4951H223.634Z" fill="white"/>
<path d="M202.528 83.7546L198.504 76.7821C198.085 76.0543 197.865 75.2292 197.866 74.3896C197.867 73.55 198.089 72.7254 198.509 71.9985C198.929 71.2717 199.533 70.6681 200.26 70.2484C200.988 69.8287 201.812 69.6077 202.652 69.6074H210.72C211.56 69.6085 212.384 69.83 213.111 70.2497C213.838 70.6694 214.442 71.2726 214.862 71.999C215.283 72.7254 215.506 73.5495 215.508 74.3888C215.51 75.2282 215.292 76.0535 214.875 76.7821L210.851 83.7546C210.431 84.4879 209.825 85.0973 209.095 85.5212C208.364 85.945 207.534 86.1683 206.689 86.1683C205.844 86.1683 205.015 85.945 204.284 85.5212C203.553 85.0973 202.947 84.4879 202.528 83.7546Z" fill="#F5F5F5"/>
<path d="M164.097 243C233.941 243 290.56 239.694 290.56 235.617C290.56 231.539 233.941 228.233 164.097 228.233C94.253 228.233 37.6333 231.539 37.6333 235.617C37.6333 239.694 94.253 243 164.097 243Z" fill="#F5F5F5"/>
<path d="M233.673 28.8945H83.3174L93.2119 233.66H243.567L233.673 28.8945Z" fill="#F79E89"/>
<path opacity="0.2" d="M233.673 28.8945H83.3174L93.2119 233.66H243.567L233.673 28.8945Z" fill="black"/>
<path d="M235.062 28.8945H84.7068L94.6079 233.66H244.963L235.062 28.8945Z" fill="#F79E89"/>
<path opacity="0.2" d="M227.124 35.7822H91.5811L101.052 224.405L218.912 224.248L238.499 206.885L227.124 35.7822Z" fill="black"/>
<path d="M228.161 35.7757C229.606 92.2642 234.168 148.63 241.825 204.616C231.085 212.008 220.399 219.4 209.768 226.792H108.396C98.8278 163.531 93.2119 99.7353 91.5811 35.7757H228.161Z" fill="white"/>
<path d="M241.826 204.615C231.086 212.007 220.4 219.4 209.768 226.792C212.09 217.008 214.51 207.224 217.028 197.441L241.826 204.615Z" fill="#EBEBEB"/>
<path d="M128.336 53.0338C128.592 59.9389 128.892 66.8484 129.236 73.7621H108.514C108.166 66.8484 107.866 59.9389 107.614 53.0338H128.336ZM130.449 50.8488H105.351C105.642 59.2106 106.005 67.5767 106.44 75.9472H131.545C131.11 67.581 130.747 59.2149 130.455 50.8488H130.449Z" fill="#F79E89"/>
<path d="M213.01 60.8152H142.032C141.967 59.2563 141.909 57.6909 141.85 56.132H212.821C212.879 57.6909 212.944 59.2563 213.01 60.8152Z" fill="#E0E0E0"/>
<path d="M198.014 70.6641H142.469C142.397 69.0987 142.319 67.5399 142.254 65.981H197.792C197.866 67.5421 197.94 69.1031 198.014 70.6641Z" fill="#E0E0E0"/>
<path d="M130.37 93.6295C130.805 100.543 131.29 107.457 131.825 114.371H111.097C110.562 107.457 110.077 100.543 109.642 93.6295H130.37ZM132.418 91.4445H107.32C107.833 99.815 108.418 108.185 109.075 116.556H134.206C133.553 108.19 132.966 99.8193 132.445 91.4445H132.418Z" fill="#F79E89"/>
<path d="M170.34 101.417H144.25C144.146 99.852 144.035 98.2931 143.937 96.7278H170.027C170.125 98.2931 170.229 99.852 170.34 101.417Z" fill="#E0E0E0"/>
<path d="M195.04 101.417H175.858C175.753 99.852 175.643 98.2931 175.545 96.7278H194.727C194.825 98.2931 194.929 99.852 195.04 101.417Z" fill="#E0E0E0"/>
<path d="M207.081 111.273H144.968C144.85 109.708 144.739 108.149 144.622 106.583H206.735C206.853 108.149 206.964 109.708 207.081 111.273Z" fill="#E0E0E0"/>
<path d="M133.482 134.245C134.103 141.159 134.773 148.072 135.49 154.986H114.762C114.045 148.072 113.375 141.159 112.753 134.245H133.482ZM135.477 132.06H110.373C111.112 140.435 111.921 148.807 112.799 157.178H137.904C137.034 148.803 136.225 140.43 135.477 132.06Z" fill="#F79E89"/>
<path d="M219.062 147.205H148.079L148.548 151.888H219.532L219.062 147.205Z" fill="#E0E0E0"/>
<path d="M202.691 137.35H147.146C147.289 138.908 147.433 140.474 147.583 142.033H203.122C202.978 140.474 202.828 138.928 202.691 137.35Z" fill="#E0E0E0"/>
<path d="M137.675 174.86C138.484 181.774 139.338 188.686 140.239 195.595H119.51C118.61 188.69 117.756 181.778 116.947 174.86H137.675ZM139.632 172.675H114.508C115.464 181.05 116.497 189.418 117.606 197.78H142.685C141.584 189.418 140.552 181.05 139.586 172.675H139.632Z" fill="#F79E89"/>
<path d="M222.969 182.628H151.985C151.796 181.063 151.607 179.504 151.425 177.939H222.402C222.591 179.523 222.774 181.082 222.969 182.628Z" fill="#E0E0E0"/>
<path d="M185.531 192.497H153.219C153.017 190.938 152.821 189.372 152.625 187.814H184.937C185.133 189.372 185.329 190.938 185.531 192.497Z" fill="#E0E0E0"/>
<path d="M204.824 192.497H190.873C190.67 190.938 190.475 189.372 190.279 187.814H204.231C204.426 189.372 204.648 190.938 204.824 192.497Z" fill="#E0E0E0"/>
<path d="M119.204 70.8011L118.284 69.3401C116.275 66.1441 112.179 63.2938 110.764 62.4589L111.82 60.587C114.597 62.2732 117.078 64.404 119.165 66.8942C122.321 62.5959 126.992 58.1541 133.383 53.3797L134.734 55.1407C127.911 60.2478 123.137 64.9244 120.123 69.4249L119.204 70.8011Z" fill="#F79E89"/>
<path d="M121.683 111.41L120.724 109.949C118.637 106.753 114.462 103.896 113.027 103.061L114.025 101.189C116.855 102.876 119.394 105.008 121.546 107.503C124.585 103.198 129.131 98.7562 135.399 93.9753C135.862 94.5623 136.332 95.1493 136.795 95.7429C130.11 100.856 125.459 105.527 122.57 110.034C122.27 110.49 121.976 110.953 121.683 111.41Z" fill="#F79E89"/>
<path d="M125.283 152.129L124.285 150.668C122.107 147.472 117.854 144.616 116.399 143.787C116.712 143.135 117.052 142.535 117.352 141.915C120.226 143.605 122.818 145.733 125.035 148.223C127.964 143.918 132.392 139.482 138.524 134.695L139.972 136.463C133.449 141.576 128.883 146.246 126.124 150.753L125.283 152.129Z" fill="#F79E89"/>
<path d="M191.036 215.541C187.187 215.541 184.97 214.119 183.013 212.866C181.056 211.614 179.374 210.531 176.125 210.531C172.877 210.531 171.429 211.666 169.896 212.866C168.364 214.067 166.485 215.541 162.637 215.541C158.789 215.541 156.571 214.119 154.621 212.866C152.671 211.614 150.988 210.531 147.733 210.531C144.478 210.531 143.037 211.666 141.504 212.866C139.971 214.067 138.093 215.541 134.251 215.541C130.41 215.541 128.185 214.119 126.229 212.866C124.272 211.614 122.596 210.531 119.341 210.531C119.256 209.879 119.165 209.279 119.08 208.653C122.928 208.653 125.139 210.075 127.096 211.327C129.053 212.579 130.729 213.662 133.977 213.662C137.226 213.662 138.673 212.527 140.206 211.327C141.739 210.127 143.624 208.653 147.472 208.653C151.32 208.653 153.525 210.075 155.482 211.327C157.439 212.579 159.121 213.662 162.37 213.662C165.618 213.662 167.066 212.527 168.598 211.327C170.131 210.127 172.016 208.653 175.864 208.653C179.713 208.653 181.924 210.075 183.881 211.327C185.837 212.579 187.514 213.662 190.768 213.662C190.853 214.288 190.951 214.914 191.036 215.541Z" fill="#EBEBEB"/>
<path d="M196.554 33.9623C194.349 28.0921 189.255 24.2374 183.776 24.2374H172.61C171.779 24.2301 170.968 23.979 170.278 23.5152C169.588 23.0515 169.049 22.3954 168.729 21.6284C167.94 19.7537 166.62 18.1505 164.931 17.0161C163.243 15.8816 161.26 15.2653 159.226 15.2429C157.258 15.223 155.335 15.8315 153.738 16.98C152.14 18.1285 150.95 19.757 150.342 21.6284C150.094 22.3941 149.608 23.0604 148.954 23.5298C148.301 23.9993 147.514 24.2472 146.709 24.2374H135.549C130.064 24.2374 125.342 28.1117 123.711 33.9623L123.059 36.2908H197.415L196.554 33.9623Z" fill="#263238"/>
<path d="M196.952 38.5867H123.77C123.153 38.5795 122.561 38.3386 122.114 37.9126C121.668 37.4865 121.399 36.907 121.363 36.2908C121.347 35.9948 121.392 35.6986 121.495 35.4205C121.597 35.1424 121.756 34.8882 121.961 34.6738C122.165 34.4593 122.412 34.289 122.685 34.1734C122.958 34.0577 123.252 33.9992 123.548 34.0014H196.73C197.346 34.0085 197.937 34.2485 198.383 34.6732C198.83 35.0979 199.099 35.6758 199.137 36.2908C199.154 36.5874 199.109 36.8843 199.007 37.1632C198.905 37.4421 198.746 37.697 198.542 37.9122C198.337 38.1273 198.09 38.2982 197.816 38.4143C197.543 38.5303 197.249 38.589 196.952 38.5867Z" fill="#F79E89"/>
<path opacity="0.2" d="M196.952 38.5867H123.77C123.153 38.5795 122.561 38.3386 122.114 37.9126C121.668 37.4865 121.399 36.907 121.363 36.2908C121.347 35.9948 121.392 35.6986 121.495 35.4205C121.597 35.1424 121.756 34.8882 121.961 34.6738C122.165 34.4593 122.412 34.289 122.685 34.1734C122.958 34.0577 123.252 33.9992 123.548 34.0014H196.73C197.346 34.0085 197.937 34.2485 198.383 34.6732C198.83 35.0979 199.099 35.6758 199.137 36.2908C199.154 36.5874 199.109 36.8843 199.007 37.1632C198.905 37.4421 198.746 37.697 198.542 37.9122C198.337 38.1273 198.09 38.2982 197.816 38.4143C197.543 38.5303 197.249 38.589 196.952 38.5867Z" fill="black"/>
<path d="M176.442 231.697H171.661L171.185 220.628H175.966L176.442 231.697Z" fill="#FFC3BD"/>
<path d="M205.134 231.697H200.353L197.953 220.628H202.727L205.134 231.697Z" fill="#FFC3BD"/>
<path d="M200.014 231.142H205.382C205.477 231.142 205.569 231.174 205.642 231.233C205.716 231.293 205.767 231.376 205.786 231.468L206.732 235.721C206.754 235.824 206.752 235.931 206.726 236.033C206.701 236.136 206.653 236.231 206.586 236.312C206.519 236.394 206.435 236.459 206.339 236.503C206.244 236.548 206.14 236.57 206.034 236.569C204.162 236.536 203.249 236.425 200.888 236.425C199.434 236.425 196.44 236.575 194.437 236.575C192.435 236.575 192.168 234.619 192.989 234.417C196.675 233.608 198.057 232.499 199.238 231.436C199.452 231.247 199.728 231.142 200.014 231.142Z" fill="#263238"/>
<path d="M171.694 231.142H176.912C177.006 231.142 177.098 231.174 177.172 231.233C177.246 231.293 177.296 231.376 177.316 231.468L178.262 235.721C178.285 235.821 178.286 235.924 178.264 236.024C178.242 236.124 178.199 236.218 178.136 236.299C178.074 236.381 177.994 236.447 177.903 236.493C177.812 236.54 177.712 236.566 177.61 236.569C175.725 236.536 173.005 236.425 170.637 236.425C167.872 236.425 165.484 236.575 162.236 236.575C160.279 236.575 159.732 234.619 160.553 234.417C164.291 233.595 167.343 233.51 170.572 231.514C170.906 231.292 171.293 231.164 171.694 231.142Z" fill="#263238"/>
<path d="M181.06 57.3453C180.408 60.8413 180.029 65.1722 182.475 67.5073C182.475 67.5073 181.073 71.0555 174.576 71.0555C168.641 71.0555 171.615 67.5073 171.615 67.5073C175.529 66.5746 175.307 61.7545 174.629 59.0281L181.06 57.3453Z" fill="#FFC3BD"/>
<path d="M169.75 67.9965C169.88 67.129 171.407 66.118 173.142 65.7397C174.877 65.3614 181.543 64.5201 183.578 65.3614C185.613 66.2028 183.225 68.6944 183.225 68.6944L169.75 67.9965Z" fill="#F79E89"/>
<path opacity="0.4" d="M169.75 67.9965C169.88 67.129 171.407 66.118 173.142 65.7397C174.877 65.3614 181.543 64.5201 183.578 65.3614C185.613 66.2028 183.225 68.6944 183.225 68.6944L169.75 67.9965Z" fill="white"/>
<path opacity="0.2" d="M171.185 220.635L171.433 226.335H176.214L175.966 220.635H171.185Z" fill="black"/>
<path opacity="0.2" d="M202.734 220.635H197.953L199.192 226.335H203.973L202.734 220.635Z" fill="black"/>
<path d="M192.376 71.8122L186.617 75.6605C186.617 75.6605 194.887 90.3686 194.196 92.7232C193.25 95.9322 191.933 102.944 190.139 106.505C190.374 107.275 191.567 109.029 192.233 109.329C196.798 105.859 201.41 94.9799 201.24 91.9339C200.842 85.0267 192.376 71.8122 192.376 71.8122Z" fill="#FFC3BD"/>
<path d="M190.139 106.518L185.573 106.166L187.967 111.195C187.967 111.195 191.952 111.371 192.618 108.325L190.139 106.518Z" fill="#B55B52"/>
<path d="M212.707 131.042L212.322 131.766L209.739 136.652L118.046 88.1704L121.008 82.5611L212.707 131.042Z" fill="#F79E89"/>
<path d="M218.636 119.843L216.744 123.418L215.675 125.44L123.976 76.9583L126.937 71.349L218.636 119.843Z" fill="#F79E89"/>
<path d="M124.006 76.9419L121.038 82.5443L212.699 131.097L215.667 125.495L124.006 76.9419Z" fill="#F79E89"/>
<path opacity="0.2" d="M124.006 76.9419L121.038 82.5443L212.699 131.097L215.667 125.495L124.006 76.9419Z" fill="black"/>
<path d="M114.094 72.0926L111.427 77.1409L118.047 88.1704L126.937 71.3555L114.094 72.0926Z" fill="#F79E89"/>
<path opacity="0.8" d="M114.094 72.0926L111.427 77.1409L118.047 88.1704L126.937 71.3555L114.094 72.0926Z" fill="white"/>
<path d="M108.589 72.4122L111.426 77.141L114.094 72.0926L108.589 72.4122Z" fill="#F79E89"/>
<path d="M181.901 108.455L184.289 112.903L187.987 111.195L185.593 106.166L181.901 108.455Z" fill="#B55B52"/>
<path d="M191.007 68.59C195.527 69.2423 200.705 84.8961 200.705 84.8961L191.209 90.2576C191.209 90.2576 187.028 82.8351 184.973 77.291C182.808 71.4925 186.16 67.8856 191.007 68.59Z" fill="#263238"/>
<path opacity="0.2" d="M188.378 73.958C186.324 72.0795 187.582 80.1217 188.561 85.2679C189.063 86.2723 189.539 87.1855 189.944 87.9486C192.233 83.9047 191.209 76.5474 188.378 73.958Z" fill="black"/>
<path d="M164.239 68.8379C164.239 68.8379 158.597 83.2655 163.952 110.138H189.539C189.715 106.225 187.25 87.0746 191.033 68.59C188.207 68.0444 185.348 67.6827 182.475 67.5073C178.858 67.2984 175.232 67.2984 171.615 67.5073C169.125 67.7563 166.659 68.2012 164.239 68.8379Z" fill="#263238"/>
<path d="M168.172 75.5431L161.728 72.9928C161.728 72.9928 154.305 88.1444 151.944 88.9075C148.767 89.9511 142.245 92.821 138.292 93.3819C137.797 94.0342 137.027 95.9909 137.151 96.7084C142.597 98.489 154.188 96.1279 156.588 94.2625C162.093 90.0098 168.172 75.5431 168.172 75.5431Z" fill="#FFC3BD"/>
<path opacity="0.2" d="M168.896 73.8209C167.833 71.3685 165.798 70.3445 163.678 70.7032C162.856 73.7101 161.467 80.3173 161.721 90.2705L163.241 91.0011C163.241 91.0011 170.716 78.0149 168.896 73.8209Z" fill="black"/>
<path d="M169.913 72.1056C171.518 76.3843 163.391 88.9726 163.391 88.9726L153.829 83.7547C155.265 79.8393 157.117 76.0893 159.353 72.5687C162.712 67.5529 168.146 67.416 169.913 72.1056Z" fill="#263238"/>
<path d="M138.527 93.3687L132.84 94.5754L135.723 99.839C137.312 99.0482 138.757 97.9941 139.995 96.7213L138.527 93.3687Z" fill="#FFC3BD"/>
<path d="M130.152 95.7691L132.422 98.9129L135.722 99.8651L132.84 94.6015L130.152 95.7691Z" fill="#FFC3BD"/>
<path d="M170.22 52.3167C170.22 52.7015 169.978 52.9689 169.724 52.9689C169.47 52.9689 169.287 52.6297 169.313 52.2449C169.339 51.8601 169.554 51.5927 169.809 51.5927C170.063 51.5927 170.246 51.9318 170.22 52.3167Z" fill="#263238"/>
<path d="M170.559 52.3492C170.032 53.4984 169.35 54.5695 168.53 55.5322C168.782 55.7359 169.076 55.8818 169.39 55.9596C169.705 56.0374 170.032 56.0451 170.35 55.9822L170.559 52.3492Z" fill="#ED847E"/>
<path d="M169.73 50.986C169.696 50.9787 169.663 50.9654 169.633 50.9468C169.607 50.931 169.585 50.9102 169.568 50.8856C169.551 50.8611 169.539 50.8334 169.533 50.8042C169.527 50.775 169.527 50.7448 169.533 50.7155C169.539 50.6862 169.55 50.6584 169.567 50.6338C169.756 50.3283 170.015 50.0721 170.322 49.8862C170.63 49.7002 170.977 49.5898 171.335 49.5641C171.394 49.5672 171.451 49.5923 171.493 49.6344C171.535 49.6766 171.56 49.7328 171.563 49.7924C171.563 49.8529 171.539 49.911 171.496 49.9538C171.453 49.9966 171.395 50.0207 171.335 50.0207C171.057 50.0466 170.788 50.1374 170.552 50.2858C170.315 50.4342 170.116 50.636 169.972 50.8751C169.948 50.9164 169.912 50.9494 169.869 50.9692C169.826 50.9891 169.777 50.995 169.73 50.986Z" fill="#263238"/>
<path d="M183.186 51.9839C182.625 56.6931 182.534 59.4717 180.01 61.7676C176.207 65.2114 170.5 62.7133 169.639 57.9259C168.87 53.6211 169.92 46.6486 174.655 45.031C175.697 44.6705 176.814 44.5822 177.899 44.7746C178.985 44.9669 180.004 45.4335 180.858 46.1301C181.713 46.8266 182.375 47.73 182.783 48.7545C183.19 49.779 183.329 50.8907 183.186 51.9839Z" fill="#FFC3BD"/>
<path d="M173.696 52.9036C172.046 53.2297 169.411 49.5641 171.563 46.4529C170.474 45.9115 166.919 48.0509 165.582 46.055C164.245 44.0592 167.956 42.996 167.245 41.3067C169.763 41.822 165.615 44.9658 168.009 44.6592C170.402 44.3527 173.161 39.9305 175.835 41.7437C180.564 44.9201 187.008 39.6239 184.38 46.2572C187.602 45.605 189.807 49.4141 186.735 52.0557C180.61 57.3062 184.38 57.9976 180.499 58.265C178.555 58.4085 174.035 56.0931 173.696 52.9036Z" fill="#263238"/>
<path d="M176.142 54.1364C175.916 54.6072 175.599 55.0281 175.208 55.3742C174.817 55.7204 174.361 55.9848 173.866 56.1519C172.561 56.6019 171.811 55.4344 172.118 54.1495C172.392 52.9885 173.422 51.3579 174.773 51.4753C175.069 51.5042 175.353 51.607 175.6 51.7743C175.846 51.9415 176.046 52.1678 176.183 52.4326C176.319 52.6973 176.387 52.992 176.38 53.2896C176.372 53.5873 176.291 53.8784 176.142 54.1364Z" fill="#FFC3BD"/>
<path d="M173.018 110.138C173.018 110.138 178.444 146.664 181.419 160.361C184.68 175.362 196.962 225.252 196.962 225.252H205.715C205.715 225.252 197.62 176.556 195.755 161.717C193.74 145.62 189.513 110.157 189.513 110.157L173.018 110.138Z" fill="#F79E89"/>
<path opacity="0.2" d="M173.018 110.138C173.018 110.138 178.444 146.664 181.419 160.361C184.68 175.362 196.962 225.252 196.962 225.252H205.715C205.715 225.252 197.62 176.556 195.755 161.717C193.74 145.62 189.513 110.157 189.513 110.157L173.018 110.138Z" fill="white"/>
<path opacity="0.2" d="M179.462 122.909C179.058 122.335 178.692 122.139 178.353 122.257H178.281C178.204 122.29 178.132 122.334 178.066 122.387C177.997 122.443 177.933 122.507 177.877 122.576L177.773 122.707L177.636 122.922C177.522 123.112 177.424 123.31 177.342 123.515C177.29 123.639 177.238 123.77 177.192 123.9C177.146 124.031 177.075 124.233 177.023 124.416C176.97 124.598 176.873 124.911 176.801 125.179C176.801 125.25 176.768 125.316 176.749 125.387C176.729 125.459 176.677 125.687 176.644 125.837C176.612 125.987 176.586 126.098 176.559 126.229C176.501 126.483 176.449 126.751 176.396 127.025C176.344 127.298 176.286 127.618 176.233 127.925C176.233 128.029 176.201 128.133 176.181 128.244C176.116 128.636 176.057 129.033 175.999 129.444C177.447 138.537 179.168 148.959 180.564 156.232C180.629 155.997 180.701 155.749 180.76 155.482C181.045 154.269 181.263 153.041 181.412 151.803C182.645 142.431 182.077 126.646 179.462 122.909Z" fill="black"/>
<path d="M163.952 110.138C163.952 110.138 163.299 145.868 163.815 160.445C164.356 175.604 169.652 225.233 169.652 225.233H177.747C177.747 225.233 178.04 176.484 178.399 161.6C178.79 145.372 180.747 110.138 180.747 110.138H163.952Z" fill="#F79E89"/>
<path opacity="0.2" d="M163.952 110.138C163.952 110.138 163.299 145.868 163.815 160.445C164.356 175.604 169.652 225.233 169.652 225.233H177.747C177.747 225.233 178.04 176.484 178.399 161.6C178.79 145.372 180.747 110.138 180.747 110.138H163.952Z" fill="white"/>
<path d="M178.281 222.754C178.314 222.754 178.281 225.396 178.281 225.396H168.948L168.556 222.428L178.281 222.754Z" fill="#263238"/>
<path d="M205.715 222.95C205.754 222.95 206.152 225.396 206.152 225.396H196.531L195.683 222.591L205.715 222.95Z" fill="#263238"/>
<path d="M198.436 231.977C198.111 232.004 197.786 231.919 197.516 231.736C197.428 231.665 197.361 231.572 197.32 231.467C197.278 231.362 197.265 231.248 197.281 231.136C197.282 231.071 197.3 231.007 197.333 230.951C197.366 230.895 197.414 230.848 197.471 230.816C197.999 230.549 199.545 231.469 199.721 231.599C199.739 231.612 199.753 231.63 199.761 231.651C199.769 231.672 199.771 231.695 199.766 231.716C199.763 231.738 199.753 231.759 199.738 231.775C199.723 231.791 199.703 231.803 199.682 231.808C199.274 231.91 198.856 231.966 198.436 231.977ZM197.725 230.992C197.675 230.981 197.624 230.981 197.575 230.992C197.552 231.006 197.533 231.025 197.521 231.048C197.508 231.071 197.502 231.097 197.503 231.123C197.493 231.199 197.502 231.276 197.53 231.348C197.557 231.42 197.602 231.484 197.66 231.534C198.192 231.781 198.8 231.814 199.356 231.625C198.858 231.311 198.304 231.096 197.725 230.992Z" fill="#F79E89"/>
<path d="M199.655 231.814C199.638 231.82 199.62 231.82 199.603 231.814C199.107 231.547 198.155 230.51 198.253 229.968C198.269 229.885 198.314 229.811 198.38 229.757C198.445 229.704 198.527 229.675 198.612 229.675C198.698 229.662 198.785 229.668 198.869 229.693C198.952 229.718 199.029 229.761 199.094 229.818C199.649 230.268 199.746 231.651 199.746 231.71C199.746 231.73 199.741 231.75 199.732 231.768C199.723 231.786 199.71 231.802 199.694 231.814C199.681 231.817 199.668 231.817 199.655 231.814ZM198.69 229.857H198.67C198.52 229.857 198.507 229.942 198.501 229.975C198.442 230.288 199.049 231.077 199.544 231.449C199.51 230.905 199.312 230.385 198.977 229.955C198.935 229.919 198.886 229.893 198.833 229.878C198.78 229.864 198.724 229.861 198.67 229.871L198.69 229.857Z" fill="#F79E89"/>
<path d="M169.704 231.977C169.295 232.015 168.885 231.912 168.543 231.684C168.468 231.615 168.41 231.53 168.374 231.435C168.338 231.339 168.324 231.237 168.335 231.136C168.335 231.074 168.352 231.013 168.384 230.96C168.416 230.907 168.462 230.864 168.517 230.836C169.098 230.51 171.022 231.488 171.237 231.599C171.259 231.609 171.277 231.626 171.287 231.647C171.298 231.669 171.301 231.693 171.296 231.716C171.293 231.74 171.283 231.761 171.266 231.778C171.249 231.794 171.228 231.805 171.205 231.808C170.711 231.913 170.209 231.97 169.704 231.977ZM168.837 230.992C168.765 230.99 168.694 231.003 168.628 231.031C168.606 231.044 168.588 231.062 168.576 231.084C168.563 231.106 168.557 231.13 168.556 231.155C168.547 231.222 168.555 231.29 168.579 231.352C168.603 231.415 168.642 231.471 168.693 231.514C168.987 231.775 169.776 231.821 170.833 231.645C170.209 231.317 169.534 231.096 168.837 230.992Z" fill="#F79E89"/>
<path d="M171.185 231.814H171.139C170.559 231.553 169.418 230.51 169.509 229.981C169.509 229.857 169.62 229.694 169.926 229.668C170.042 229.651 170.16 229.659 170.273 229.692C170.386 229.724 170.49 229.781 170.578 229.857C171.185 230.36 171.309 231.644 171.316 231.703C171.318 231.722 171.316 231.742 171.307 231.759C171.299 231.776 171.286 231.791 171.27 231.801C171.244 231.816 171.214 231.821 171.185 231.814ZM170.018 229.857H169.972C169.77 229.857 169.757 229.955 169.75 229.988C169.698 230.307 170.474 231.123 171.055 231.475C170.998 230.927 170.77 230.411 170.402 230.001C170.291 229.917 170.156 229.872 170.018 229.87V229.857Z" fill="#F79E89"/>
</svg>
