<svg width="84" height="19" viewBox="0 0 84 19" fill="none" xmlns="http://www.w3.org/2000/svg">
<path d="M0.26001 2.808H3.25001V18.408H6.11001V2.808H9.10001V0.207999H0.26001V2.808Z" fill="#F79E89"/>
<path d="M13.2952 4.394C13.2952 3.094 13.8672 2.6 14.7772 2.6C15.6872 2.6 16.2592 3.094 16.2592 4.394V14.222C16.2592 15.522 15.6872 16.016 14.7772 16.016C13.8672 16.016 13.2952 15.522 13.2952 14.222V4.394ZM10.4352 14.04C10.4352 16.952 11.9692 18.616 14.7772 18.616C17.5852 18.616 19.1192 16.952 19.1192 14.04V4.576C19.1192 1.664 17.5852 0 14.7772 0C11.9692 0 10.4352 1.664 10.4352 4.576V14.04Z" fill="#F79E89"/>
<path d="M25.5349 18.408H30.0589C32.9189 18.408 34.3229 16.822 34.3229 13.91V4.706C34.3229 1.794 32.9189 0.207999 30.0589 0.207999H25.5349V18.408ZM30.0069 2.808C30.9169 2.808 31.4629 3.276 31.4629 4.576V14.04C31.4629 15.34 30.9169 15.808 30.0069 15.808H28.3949V2.808H30.0069Z" fill="#F79E89"/>
<path d="M39.0341 4.394C39.0341 3.094 39.6061 2.6 40.5161 2.6C41.4261 2.6 41.9981 3.094 41.9981 4.394V14.222C41.9981 15.522 41.4261 16.016 40.5161 16.016C39.6061 16.016 39.0341 15.522 39.0341 14.222V4.394ZM36.1741 14.04C36.1741 16.952 37.7081 18.616 40.5161 18.616C43.3241 18.616 44.8581 16.952 44.8581 14.04V4.576C44.8581 1.664 43.3241 0 40.5161 0C37.7081 0 36.1741 1.664 36.1741 4.576V14.04Z" fill="#F79E89"/>
<path d="M51.2738 18.408H58.8398V15.808H54.1338V0.207999H51.2738V18.408Z" fill="#F79E89"/>
<path d="M60.3952 18.408H63.2552V0.207999H60.3952V18.408Z" fill="#F79E89"/>
<path d="M65.2423 4.576C65.2423 9.776 70.8323 10.478 70.8323 14.222C70.8323 15.522 70.2603 15.99 69.3503 15.99C68.4403 15.99 67.8683 15.522 67.8683 14.222V12.792H65.1643V14.04C65.1643 16.952 66.6203 18.616 69.4283 18.616C72.2363 18.616 73.6923 16.952 73.6923 14.04C73.6923 8.84 68.1023 8.138 68.1023 4.394C68.1023 3.094 68.6223 2.6 69.5323 2.6C70.4423 2.6 70.9623 3.094 70.9623 4.394V5.278H73.6663V4.576C73.6663 1.664 72.2363 0 69.4543 0C66.6723 0 65.2423 1.664 65.2423 4.576Z" fill="#F79E89"/>
<path d="M74.8109 2.808H77.8009V18.408H80.6609V2.808H83.6509V0.207999H74.8109V2.808Z" fill="#F79E89"/>
</svg>
