<svg width="90" height="88" viewBox="0 0 90 88" fill="none" xmlns="http://www.w3.org/2000/svg">
<path fill-rule="evenodd" clip-rule="evenodd" d="M0.26001 3.39998H3.25001V19H6.11001V3.39998H9.10001V0.799984H0.26001V3.39998ZM32.0152 4.98598C32.0152 3.68598 32.5872 3.19198 33.4972 3.19198C34.4072 3.19198 34.9792 3.68598 34.9792 4.98598V14.814C34.9792 16.114 34.4072 16.608 33.4972 16.608C32.5872 16.608 32.0152 16.114 32.0152 14.814V4.98598ZM29.1552 14.632C29.1552 17.544 30.6892 19.208 33.4972 19.208C36.3052 19.208 37.8392 17.544 37.8392 14.632V5.16798C37.8392 2.25598 36.3052 0.591985 33.4972 0.591985C30.6892 0.591985 29.1552 2.25598 29.1552 5.16798V14.632ZM1.04001 53H5.56401C8.42401 53 9.82801 51.414 9.82801 48.502V39.298C9.82801 36.386 8.42401 34.8 5.56401 34.8H1.04001V53ZM5.51201 37.4C6.42201 37.4 6.96801 37.868 6.96801 39.168V48.632C6.96801 49.932 6.42201 50.4 5.51201 50.4H3.90001V37.4H5.51201ZM33.2593 38.986C33.2593 37.686 33.8313 37.192 34.7413 37.192C35.6513 37.192 36.2233 37.686 36.2233 38.986V48.814C36.2233 50.114 35.6513 50.608 34.7413 50.608C33.8313 50.608 33.2593 50.114 33.2593 48.814V38.986ZM30.3993 48.632C30.3993 51.544 31.9333 53.208 34.7413 53.208C37.5493 53.208 39.0833 51.544 39.0833 48.632V39.168C39.0833 36.256 37.5493 34.592 34.7413 34.592C31.9333 34.592 30.3993 36.256 30.3993 39.168V48.632ZM8.60601 87H1.04001V68.8H3.90001V84.4H8.60601V87ZM31.7413 87H28.8813V68.8H31.7413V87ZM55.5863 78.8518C54.0844 77.4777 52.4485 75.981 52.4485 73.168C52.4485 70.256 53.8785 68.592 56.6605 68.592C59.4425 68.592 60.8725 70.256 60.8725 73.168V73.87H58.1685V72.986C58.1685 71.686 57.6485 71.192 56.7385 71.192C55.8285 71.192 55.3085 71.686 55.3085 72.986C55.3085 74.7046 56.4864 75.7822 57.7607 76.9482C59.2626 78.3222 60.8985 79.8189 60.8985 82.632C60.8985 85.544 59.4425 87.208 56.6345 87.208C53.8265 87.208 52.3705 85.544 52.3705 82.632V81.384H55.0745V82.814C55.0745 84.114 55.6465 84.582 56.5565 84.582C57.4665 84.582 58.0385 84.114 58.0385 82.814C58.0385 81.0954 56.8607 80.0177 55.5863 78.8518ZM83.7271 71.4H80.7371V68.8H89.5771V71.4H86.5871V87H83.7271V71.4ZM89.2071 3.2929C89.5976 3.68342 89.5976 4.31659 89.2071 4.70711L81.7071 12.2071C81.3166 12.5976 80.6834 12.5976 80.2929 12.2071L78.0429 9.95711C77.6524 9.56659 77.6524 8.93342 78.0429 8.5429C78.4334 8.15238 79.0666 8.15238 79.4571 8.5429L81 10.0858L87.7929 3.2929C88.1834 2.90238 88.8166 2.90238 89.2071 3.2929ZM75.3965 4.39647C75.4902 4.3027 75.6174 4.25003 75.75 4.25003H84C84.5523 4.25003 85 3.80231 85 3.25003C85 2.69774 84.5523 2.25003 84 2.25003H75.75C75.087 2.25003 74.4511 2.51342 73.9822 2.98226C73.5134 3.4511 73.25 4.08698 73.25 4.75002V15.25C73.25 15.9131 73.5134 16.549 73.9822 17.0178C74.4511 17.4866 75.087 17.75 75.75 17.75H86.25C86.9131 17.75 87.5489 17.4866 88.0178 17.0178C88.4866 16.549 88.75 15.9131 88.75 15.25V10C88.75 9.44774 88.3023 9.00002 87.75 9.00002C87.1977 9.00002 86.75 9.44774 86.75 10V15.25C86.75 15.3826 86.6973 15.5098 86.6036 15.6036C86.5098 15.6973 86.3826 15.75 86.25 15.75H75.75C75.6174 15.75 75.4902 15.6973 75.3965 15.6036C75.3027 15.5098 75.25 15.3826 75.25 15.25V4.75002C75.25 4.61742 75.3027 4.49024 75.3965 4.39647Z" fill="#F79E89"/>
</svg>
